<?xml version="1.0" encoding="iso-8859-1"?>
<!-- Generator: Adobe Illustrator 19.0.0, SVG Export Plug-In . SVG Version: 6.00 Build 0)  -->
<svg version="1.1" id="Layer_1" xmlns="http://www.w3.org/2000/svg" xmlns:xlink="http://www.w3.org/1999/xlink" x="0px" y="0px"
	 viewBox="0 0 512 512" style="enable-background:new 0 0 512 512;" xml:space="preserve">
<rect x="9.881" y="9.241" style="fill:#FCD577;" width="493.52" height="493.52"/>
<rect x="318.66" y="90.011" style="fill:#C4A457;" width="68.217" height="126.897"/>
<path style="fill:#FFFFFF;" d="M134.095,347.841c-14.454,0-27.231,5.927-35.024,15.006v41.329
	c7.791,9.079,20.57,15.006,35.024,15.006c23.738,0,42.982-15.971,42.982-35.671C177.076,363.812,157.833,347.841,134.095,347.841z"
	/>
<polygon style="fill:#CFDCE5;" points="503.402,61.329 503.402,9.241 9.882,9.241 9.882,502.759 336.611,502.759 336.611,463.472 
	276.093,463.472 276.093,364.275 237.19,364.275 237.19,463.472 48.785,463.472 48.785,300.092 313.053,300.092 313.053,261.19 
	111.766,261.19 82.197,261.19 48.785,261.19 48.785,47.758 237.19,47.758 237.19,190.846 276.093,190.846 276.093,47.758 
	464.499,47.758 464.499,261.19 415.775,261.19 415.775,300.092 464.499,300.092 464.499,463.472 411.038,463.472 411.038,502.759 
	503.402,502.759 503.402,94.182 "/>
<g>
	<path style="fill:#FFFFFF;" d="M86.123,343.212H48.785v80.607h37.337c8.957,0,16.217-7.26,16.217-16.217v-48.174
		C102.338,350.473,95.078,343.212,86.123,343.212z"/>
	<path style="fill:#FFFFFF;" d="M147.277,47.758H48.785v173.844h48.45c27.638,0,50.042-22.405,50.042-50.042
		C147.277,171.561,147.277,47.758,147.277,47.758z"/>
</g>
<rect x="432.129" y="91.243" style="fill:#415E72;" width="29.025" height="123.743"/>
<path d="M502.76,84.942c-5.103,0-9.24,4.137-9.24,9.24v399.337h-73.884v-20.807h44.221c5.103,0,9.24-4.137,9.24-9.24v-163.38
	c0-5.103-4.137-9.24-9.24-9.24h-39.484V270.43h39.484c5.103,0,9.24-4.137,9.24-9.24V47.758c0-5.103-4.137-9.24-9.24-9.24H275.451
	c-5.103,0-9.24,4.137-9.24,9.24v133.848h-20.423V47.758c0-5.103-4.137-9.24-9.24-9.24H48.143c-5.103,0-9.24,4.137-9.24,9.24v173.844
	v39.587c0,5.103,4.137,9.24,9.24,9.24h33.412c5.103,0,9.24-4.137,9.24-9.24s-4.137-9.24-9.24-9.24H57.383v-21.107h39.21
	c32.689,0,59.283-26.594,59.283-59.282V56.998h71.432v133.848c0,5.103,4.137,9.24,9.24,9.24h38.903c5.103,0,9.24-4.137,9.24-9.24
	V56.998h169.925V80.77h-24.401c-5.103,0-9.24,4.137-9.24,9.24v126.897c0,5.103,4.137,9.24,9.24,9.24h24.401v25.802h-39.484
	c-5.103,0-9.24,4.137-9.24,9.24v38.902c0,5.103,4.137,9.24,9.24,9.24h39.484v144.9h-44.222c-5.103,0-9.24,4.137-9.24,9.24v39.288
	c0,5.103,4.137,9.24,9.24,9.24h92.363c5.103,0,9.24-4.137,9.24-9.24V94.182C512,89.079,507.863,84.942,502.76,84.942z
	 M137.395,171.56c0,22.498-18.304,40.802-40.803,40.802H57.383V56.998h6.742v5.973c0,5.103,4.137,9.24,9.24,9.24
	s9.24-4.137,9.24-9.24v-5.973h5.544v24.453c0,5.103,4.137,9.24,9.24,9.24s9.24-4.137,9.24-9.24V56.998h5.544v5.973
	c0,5.103,4.137,9.24,9.24,9.24c5.103,0,9.24-4.137,9.24-9.24v-5.973h6.743V171.56H137.395z M439.455,207.668V99.25h15.161v108.417
	H439.455z"/>
<path d="M502.76,0.001H9.24C4.137,0.001,0,4.138,0,9.241v493.519c0,5.103,4.137,9.24,9.24,9.24h326.729
	c5.103,0,9.24-4.137,9.24-9.24v-39.288c0-5.103-4.137-9.24-9.24-9.24h-51.278v-89.957c0-5.103-4.137-9.24-9.24-9.24h-38.903
	c-5.103,0-9.24,4.137-9.24,9.24v89.957H57.383v-21.172h28.097c8.683,0,16.356-4.376,20.953-11.033
	c8.036,4.164,17.27,6.394,26.97,6.394c28.822,0,52.271-20.147,52.271-44.911c0-7.353-2.104-14.645-6.084-21.088
	c-2.681-4.34-8.376-5.688-12.717-3.005c-4.342,2.682-5.687,8.375-3.005,12.717c2.207,3.573,3.325,7.399,3.325,11.376
	c0,14.573-15.159,26.43-33.79,26.43c-8.314,0-16.291-2.434-22.467-6.759v-39.343c6.176-4.324,14.153-6.759,22.467-6.759
	c5.38,0,10.524,0.971,15.289,2.884c4.733,1.902,10.116-0.397,12.017-5.133c1.901-4.736-0.397-10.116-5.133-12.017
	c-6.965-2.797-14.424-4.215-22.175-4.215c-9.701,0-18.937,2.23-26.976,6.397c-4.597-6.652-12.267-11.025-20.948-11.025H57.383
	v-24.64h255.028c5.103,0,9.24-4.137,9.24-9.24v-38.902c0-5.103-4.137-9.24-9.24-9.24H111.123c-5.103,0-9.24,4.137-9.24,9.24
	s4.137,9.24,9.24,9.24h192.049v20.422H48.143c-5.103,0-9.24,4.137-9.24,9.24v163.381c0,5.103,4.137,9.24,9.24,9.24h188.406
	c5.103,0,9.24-4.137,9.24-9.24v-89.957h20.423v89.957c0,5.103,4.137,9.24,9.24,9.24h51.278v20.807H18.48V18.481h475.04v42.848
	c0,5.103,4.137,9.24,9.24,9.24s9.24-4.137,9.24-9.24V9.241C512,4.138,507.863,0.001,502.76,0.001z M85.481,352.452
	c3.848,0,6.977,3.129,6.977,6.977v48.174c0,3.846-3.129,6.977-6.977,6.977H57.383v-62.127h28.097V352.452z"/>
<path d="M386.24,80.77h-68.215c-5.103,0-9.24,4.137-9.24,9.24v126.897c0,5.103,4.137,9.24,9.24,9.24h68.215
	c5.103,0,9.24-4.137,9.24-9.24v-30.184v-66.529V90.01C395.48,84.907,391.343,80.77,386.24,80.77z M327.265,207.668V99.25H377v11.704
	h-26.865c-5.103,0-9.24,4.137-9.24,9.24v66.529c0,5.103,4.137,9.24,9.24,9.24H377v11.704H327.265z M377,177.483h-17.625v-48.049H377
	V177.483z"/>
<circle cx="130.827" cy="383.514" r="9.24"/>
<circle cx="97.391" cy="178.778" r="9.24"/>
<g>
</g>
<g>
</g>
<g>
</g>
<g>
</g>
<g>
</g>
<g>
</g>
<g>
</g>
<g>
</g>
<g>
</g>
<g>
</g>
<g>
</g>
<g>
</g>
<g>
</g>
<g>
</g>
<g>
</g>
</svg>
